<?xml version="1.0" standalone="no"?><svg xmlns:xlink="http://www.w3.org/1999/xlink" xmlns="http://www.w3.org/2000/svg" viewBox="0 0 1920 1080.0009097042705" preserveAspectRatio="xMaxYMax slice"><g transform="scale(1.4555268324855397)"><rect x="0" y="0" width="1319.111111111111" height="742" fill="#eefbf4"/><rect x="906.89" y="0" width="82.44" height="82.44" fill="#6fba8a"/><path d="M 906.89 0 A 82.44 82.44 0 0 1 989.3299999999999 82.44 L 906.89 82.44" fill="#d2efdd"/><rect x="82.44" y="82.44" width="82.44" height="82.44" fill="#86c59d"/><rect x="82.44" y="82.44" width="82.44" height="82.44" fill="#b1dcc2"/><rect x="329.78" y="82.44" width="82.44" height="82.44" fill="#58be79"/><path d="M 329.78 164.88 A 82.44 82.44 0 0 0 412.21999999999997 82.44 L 329.78 82.44" fill="#4cb96f"/><rect x="494.67" y="82.44" width="82.44" height="82.44" fill="#61b27f"/><path d="M 494.67 82.44 A 82.44 82.44 0 0 1 577.11 164.88 L 494.67 164.88" fill="#8ed4a5"/><rect x="824.44" y="164.89" width="82.44" height="82.44" fill="#91d5a7"/><rect x="824.44" y="164.89" width="82.44" height="82.44" fill="#c4e5d1"/><rect x="1071.78" y="164.89" width="82.44" height="82.44" fill="#41b466"/><polygon points="1071.78,164.89 1154.22,164.89 1071.78,247.32999999999998" fill="#219149"/><rect x="412.22" y="247.33" width="82.44" height="82.44" fill="#9cd1b0"/><polygon points="494.66,247.33 494.66,329.77 412.22,329.77" fill="#2ead57"/><rect x="824.44" y="329.78" width="82.44" height="82.44" fill="#85d09e"/><polygon points="824.44,329.78 906.8800000000001,329.78 906.8800000000001,412.21999999999997" fill="#66b582"/><rect x="0" y="412.22" width="82.44" height="82.44" fill="#bce1cb"/><rect x="0" y="412.22" width="82.44" height="82.44" fill="#7bcc96"/><rect x="329.78" y="412.22" width="82.44" height="82.44" fill="#7ec196"/><rect x="329.78" y="412.22" width="82.44" height="82.44" fill="#53bc75"/><rect x="82.44" y="494.67" width="82.44" height="82.44" fill="#ace0be"/><rect x="82.44" y="494.67" width="82.44" height="82.44" fill="#7dc196"/><rect x="1154.22" y="494.67" width="82.44" height="82.44" fill="#a3dcb6"/><rect x="1154.22" y="494.67" width="82.44" height="82.44" fill="#6eb989"/><rect x="0" y="577.11" width="82.44" height="82.44" fill="#9bd0af"/><path d="M 0 659.55 A 82.44 82.44 0 0 0 82.44 577.11 L 0 577.11" fill="#e9f9f0"/><rect x="659.56" y="577.11" width="82.44" height="82.44" fill="#9ad0ae"/><path d="M 659.56 659.55 A 82.44 82.44 0 0 0 742 577.11 L 659.56 577.11" fill="#64b481"/><rect x="989.33" y="577.11" width="82.44" height="82.44" fill="#64b481"/><path d="M 989.33 577.11 A 82.44 82.44 0 0 1  1071.77 659.55 L 989.33 577.11 A 82.44 82.44 0 0 0 1071.77 659.55" fill="#138a3e"/><rect x="0" y="659.56" width="82.44" height="82.44" fill="#9dd1b1"/><polygon points="82.44,659.56 82.44,742 0,742" fill="#57ad76"/><rect x="1071.78" y="659.56" width="82.44" height="82.44" fill="#86c59d"/><path d="M 1071.78 659.56 A 82.44 82.44 0 0 1  1154.22 742 L 1071.78 659.56 A 82.44 82.44 0 0 0 1154.22 742" fill="#8dc9a3"/></g></svg>