<?xml version="1.0" standalone="no"?><svg xmlns:xlink="http://www.w3.org/1999/xlink" xmlns="http://www.w3.org/2000/svg" viewBox="0 0 1920 1080.0009097042705" preserveAspectRatio="xMaxYMax slice"><g transform="scale(1.4555268324855397)"><rect x="0" y="0" width="1319.111111111111" height="742" fill="#eefbf4"/><rect x="164.89" y="0" width="82.44" height="82.44" fill="#74bc8e"/><rect x="164.89" y="0" width="82.44" height="82.44" fill="#329a57"/><rect x="412.22" y="0" width="82.44" height="82.44" fill="#93cca8"/><rect x="412.22" y="0" width="82.44" height="82.44" fill="#88c69f"/><rect x="659.56" y="0" width="82.44" height="82.44" fill="#a0d3b3"/><polygon points="659.56,0 742,82.44 659.56,82.44" fill="#a7d6b9"/><rect x="1154.22" y="0" width="82.44" height="82.44" fill="#3bb261"/><rect x="1154.22" y="0" width="82.44" height="82.44" fill="#e5f6ec"/><rect x="82.44" y="82.44" width="82.44" height="82.44" fill="#7abf93"/><polygon points="82.44,82.44 164.88,82.44 82.44,164.88" fill="#aee1c0"/><rect x="164.89" y="82.44" width="82.44" height="82.44" fill="#b5ddc4"/><polygon points="164.89,82.44 247.32999999999998,82.44 247.32999999999998,164.88" fill="#2bab54"/><rect x="247.33" y="82.44" width="82.44" height="82.44" fill="#9cd1b0"/><polygon points="329.77,82.44 329.77,164.88 247.33,164.88" fill="#26a950"/><rect x="412.22" y="82.44" width="82.44" height="82.44" fill="#64b481"/><rect x="412.22" y="82.44" width="82.44" height="82.44" fill="#edfaf3"/><rect x="494.67" y="82.44" width="82.44" height="82.44" fill="#ceead9"/><path d="M 494.67 82.44 A 82.44 82.44 0 0 1 577.11 164.88 L 494.67 164.88" fill="#a3dcb7"/><rect x="989.33" y="82.44" width="82.44" height="82.44" fill="#aedabf"/><polygon points="989.33,82.44 1071.77,82.44 1071.77,164.88" fill="#d4eede"/><rect x="1154.22" y="82.44" width="82.44" height="82.44" fill="#bee2cc"/><polygon points="1236.66,82.44 1236.66,164.88 1154.22,164.88" fill="#7dcd97"/><rect x="82.44" y="164.89" width="82.44" height="82.44" fill="#bee2cc"/><polygon points="82.44,164.89 164.88,164.89 82.44,247.32999999999998" fill="#34af5b"/><rect x="494.67" y="164.89" width="82.44" height="82.44" fill="#eaf9f1"/><path d="M 494.67 247.32999999999998 A 82.44 82.44 0 0 1  577.11 164.89 L 494.67 247.32999999999998 A 82.44 82.44 0 0 0 577.11 164.89" fill="#40a163"/><rect x="742" y="164.89" width="82.44" height="82.44" fill="#379d5b"/><path d="M 742 247.32999999999998 A 82.44 82.44 0 0 0 824.44 164.89 L 742 164.89" fill="#25934d"/><rect x="906.89" y="164.89" width="82.44" height="82.44" fill="#c6e7d3"/><path d="M 906.89 164.89 A 82.44 82.44 0 0 1  989.3299999999999 247.32999999999998 L 906.89 164.89 A 82.44 82.44 0 0 0 989.3299999999999 247.32999999999998" fill="#319a56"/><rect x="989.33" y="164.89" width="82.44" height="82.44" fill="#36b05d"/><rect x="989.33" y="164.89" width="82.44" height="82.44" fill="#9ddab1"/><rect x="1154.22" y="164.89" width="82.44" height="82.44" fill="#65c383"/><rect x="1154.22" y="164.89" width="82.44" height="82.44" fill="#b4ddc3"/><rect x="1236.67" y="164.89" width="82.44" height="82.44" fill="#ecfaf2"/><path d="M 1236.67 247.32999999999998 A 82.44 82.44 0 0 1  1319.1100000000001 164.89 L 1236.67 247.32999999999998 A 82.44 82.44 0 0 0 1319.1100000000001 164.89" fill="#c9e8d5"/><rect x="0" y="247.33" width="82.44" height="82.44" fill="#89d2a1"/><path d="M 0 247.33 A 82.44 82.44 0 0 1 82.44 329.77 L 0 329.77" fill="#198d43"/><rect x="247.33" y="247.33" width="82.44" height="82.44" fill="#4fa970"/><path d="M 247.33 329.77 A 82.44 82.44 0 0 1  329.77 247.33 L 247.33 329.77 A 82.44 82.44 0 0 0 329.77 247.33" fill="#ddf2e6"/><rect x="824.44" y="247.33" width="82.44" height="82.44" fill="#43a365"/><rect x="824.44" y="247.33" width="82.44" height="82.44" fill="#58ae77"/><rect x="1236.67" y="247.33" width="82.44" height="82.44" fill="#92d5a9"/><polygon points="1236.67,247.33 1319.1100000000001,247.33 1319.1100000000001,329.77" fill="#36b05d"/><rect x="659.56" y="329.78" width="82.44" height="82.44" fill="#e4f7ec"/><polygon points="659.56,329.78 742,412.21999999999997 659.56,412.21999999999997" fill="#4cb96f"/><rect x="824.44" y="329.78" width="82.44" height="82.44" fill="#d9f0e2"/><path d="M 824.44 329.78 A 82.44 82.44 0 0 1  906.8800000000001 412.21999999999997 L 824.44 329.78 A 82.44 82.44 0 0 0 906.8800000000001 412.21999999999997" fill="#12893c"/><rect x="906.89" y="329.78" width="82.44" height="82.44" fill="#a7d7b9"/><polygon points="906.89,329.78 989.3299999999999,329.78 906.89,412.21999999999997" fill="#86c59d"/><rect x="1071.78" y="329.78" width="82.44" height="82.44" fill="#138a3e"/><path d="M 1071.78 329.78 A 82.44 82.44 0 0 0 1154.22 412.21999999999997 L 1154.22 329.78" fill="#a2dcb6"/><rect x="1236.67" y="329.78" width="82.44" height="82.44" fill="#8bd2a2"/><rect x="1236.67" y="329.78" width="82.44" height="82.44" fill="#d5eedf"/><rect x="82.44" y="412.22" width="82.44" height="82.44" fill="#95d7ab"/><path d="M 82.44 412.22 A 82.44 82.44 0 0 1  164.88 494.66 L 82.44 412.22 A 82.44 82.44 0 0 0 164.88 494.66" fill="#2e9854"/><rect x="577.11" y="412.22" width="82.44" height="82.44" fill="#78be91"/><path d="M 577.11 494.66 A 82.44 82.44 0 0 1  659.55 412.22 L 577.11 494.66 A 82.44 82.44 0 0 0 659.55 412.22" fill="#5fb17d"/><rect x="659.56" y="412.22" width="82.44" height="82.44" fill="#3c9f5f"/><path d="M 659.56 412.22 A 82.44 82.44 0 0 1 742 494.66 L 659.56 494.66" fill="#aedabf"/><rect x="824.44" y="412.22" width="82.44" height="82.44" fill="#a9dfbb"/><rect x="824.44" y="412.22" width="82.44" height="82.44" fill="#57ad76"/><rect x="1236.67" y="412.22" width="82.44" height="82.44" fill="#b3ddc3"/><rect x="1236.67" y="412.22" width="82.44" height="82.44" fill="#23a84e"/><rect x="329.78" y="494.67" width="82.44" height="82.44" fill="#afe1c1"/><path d="M 329.78 577.11 A 82.44 82.44 0 0 1  412.21999999999997 494.67 L 329.78 577.11 A 82.44 82.44 0 0 0 412.21999999999997 494.67" fill="#90d5a7"/><rect x="412.22" y="494.67" width="82.44" height="82.44" fill="#65c383"/><path d="M 412.22 577.11 A 82.44 82.44 0 0 1  494.66 494.67 L 494.66 577.11" fill="#cdead9"/><rect x="742" y="494.67" width="82.44" height="82.44" fill="#4da86d"/><rect x="742" y="494.67" width="82.44" height="82.44" fill="#6ac588"/><rect x="824.44" y="494.67" width="82.44" height="82.44" fill="#198d43"/><rect x="824.44" y="494.67" width="82.44" height="82.44" fill="#66c484"/><rect x="906.89" y="494.67" width="82.44" height="82.44" fill="#7ece99"/><polygon points="906.89,494.67 989.3299999999999,577.11 906.89,577.11" fill="#88d1a0"/><rect x="1154.22" y="494.67" width="82.44" height="82.44" fill="#76ca92"/><polygon points="1154.22,494.67 1236.66,577.11 1154.22,577.11" fill="#69c587"/><rect x="1236.67" y="494.67" width="82.44" height="82.44" fill="#58ae77"/><polygon points="1236.67,494.67 1319.1100000000001,494.67 1319.1100000000001,577.11" fill="#ace0be"/><rect x="82.44" y="577.11" width="82.44" height="82.44" fill="#b5dec5"/><rect x="82.44" y="577.11" width="82.44" height="82.44" fill="#88d2a1"/><rect x="577.11" y="577.11" width="82.44" height="82.44" fill="#34af5b"/><rect x="577.11" y="577.11" width="82.44" height="82.44" fill="#5aaf79"/><rect x="824.44" y="577.11" width="82.44" height="82.44" fill="#7acc95"/><rect x="824.44" y="577.11" width="82.44" height="82.44" fill="#d7efe1"/><rect x="906.89" y="577.11" width="82.44" height="82.44" fill="#9ed2b1"/><rect x="906.89" y="577.11" width="82.44" height="82.44" fill="#2e9854"/><rect x="1154.22" y="577.11" width="82.44" height="82.44" fill="#6fba8a"/><rect x="1154.22" y="577.11" width="82.44" height="82.44" fill="#e3f5eb"/><rect x="1236.67" y="577.11" width="82.44" height="82.44" fill="#b2e3c3"/><polygon points="1319.1100000000001,577.11 1319.1100000000001,659.55 1236.67,659.55" fill="#37b05e"/><rect x="329.78" y="659.56" width="82.44" height="82.44" fill="#3cb262"/><polygon points="329.78,659.56 412.21999999999997,742 329.78,742" fill="#eefbf4"/><rect x="577.11" y="659.56" width="82.44" height="82.44" fill="#ccedd8"/><polygon points="577.11,659.56 659.55,659.56 577.11,742" fill="#33af5b"/><rect x="906.89" y="659.56" width="82.44" height="82.44" fill="#73bc8d"/><rect x="906.89" y="659.56" width="82.44" height="82.44" fill="#dcf4e5"/><rect x="989.33" y="659.56" width="82.44" height="82.44" fill="#71bb8c"/><polygon points="989.33,659.56 1071.77,659.56 989.33,742" fill="#9ed2b1"/><rect x="1236.67" y="659.56" width="82.44" height="82.44" fill="#69b785"/><rect x="1236.67" y="659.56" width="82.44" height="82.44" fill="#93d6aa"/></g></svg>