<?xml version="1.0" standalone="no"?><svg xmlns:xlink="http://www.w3.org/1999/xlink" xmlns="http://www.w3.org/2000/svg" viewBox="0 0 1920 1080.0034177323346" preserveAspectRatio="xMaxYMax slice"><g transform="scale(1.3670929338383981)"><rect x="0" y="0" width="1404.4444444444443" height="790" fill="#eefbf4"/><rect x="175.56" y="0" width="87.78" height="87.78" fill="#b6e4c6"/><rect x="175.56" y="0" width="87.78" height="87.78" fill="#9cdab1"/><rect x="1141.11" y="0" width="87.78" height="87.78" fill="#75bc8f"/><polygon points="1141.11,0 1228.8899999999999,0 1141.11,87.78" fill="#cbe9d7"/><rect x="1141.11" y="87.78" width="87.78" height="87.78" fill="#8cc9a3"/><path d="M 1141.11 87.78 A 87.78 87.78 0 0 0 1228.8899999999999 175.56 L 1228.8899999999999 87.78" fill="#33af5a"/><rect x="175.56" y="175.56" width="87.78" height="87.78" fill="#25a94f"/><rect x="175.56" y="175.56" width="87.78" height="87.78" fill="#6bb787"/><rect x="351.11" y="175.56" width="87.78" height="87.78" fill="#c4ead1"/><polygon points="351.11,175.56 438.89,263.34000000000003 351.11,263.34000000000003" fill="#3fb465"/><rect x="614.44" y="175.56" width="87.78" height="87.78" fill="#4ea96f"/><rect x="614.44" y="175.56" width="87.78" height="87.78" fill="#77be91"/><rect x="1141.11" y="175.56" width="87.78" height="87.78" fill="#c2e4cf"/><rect x="1141.11" y="175.56" width="87.78" height="87.78" fill="#39b160"/><rect x="1316.67" y="175.56" width="87.78" height="87.78" fill="#1da649"/><rect x="1316.67" y="175.56" width="87.78" height="87.78" fill="#8ed4a5"/><rect x="87.78" y="263.33" width="87.78" height="87.78" fill="#78cb93"/><path d="M 87.78 263.33 A 87.78 87.78 0 0 1  175.56 351.11 L 87.78 263.33 A 87.78 87.78 0 0 0 175.56 351.11" fill="#bce1ca"/><rect x="175.56" y="438.89" width="87.78" height="87.78" fill="#77bd90"/><rect x="175.56" y="438.89" width="87.78" height="87.78" fill="#b4e3c5"/><rect x="526.67" y="438.89" width="87.78" height="87.78" fill="#47b76b"/><rect x="526.67" y="438.89" width="87.78" height="87.78" fill="#1a8e43"/><rect x="438.89" y="526.67" width="87.78" height="87.78" fill="#389d5c"/><polygon points="438.89,526.67 526.67,526.67 438.89,614.4499999999999" fill="#4db970"/><rect x="614.44" y="526.67" width="87.78" height="87.78" fill="#9ed2b1"/><rect x="614.44" y="526.67" width="87.78" height="87.78" fill="#39b160"/><rect x="790" y="526.67" width="87.78" height="87.78" fill="#e4f6ec"/><path d="M 790 614.4499999999999 A 87.78 87.78 0 0 1  877.78 526.67 L 877.78 614.4499999999999" fill="#bae6c9"/><rect x="877.78" y="526.67" width="87.78" height="87.78" fill="#9bd0af"/><path d="M 877.78 614.4499999999999 A 87.78 87.78 0 0 1  965.56 526.67 L 877.78 614.4499999999999 A 87.78 87.78 0 0 0 965.56 526.67" fill="#c5e6d2"/><rect x="1141.11" y="526.67" width="87.78" height="87.78" fill="#ecfaf2"/><path d="M 1141.11 526.67 A 87.78 87.78 0 0 1 1228.8899999999999 614.4499999999999 L 1141.11 614.4499999999999" fill="#a1dcb5"/><rect x="263.33" y="614.44" width="87.78" height="87.78" fill="#84c59c"/><polygon points="263.33,614.44 351.11,702.22 263.33,702.22" fill="#c2e4cf"/><rect x="614.44" y="614.44" width="87.78" height="87.78" fill="#24a94e"/><rect x="614.44" y="614.44" width="87.78" height="87.78" fill="#c6e6d3"/><rect x="790" y="614.44" width="87.78" height="87.78" fill="#bae0c9"/><polygon points="790,614.44 877.78,702.22 790,702.22" fill="#85d09e"/><rect x="1228.89" y="614.44" width="87.78" height="87.78" fill="#98d8ae"/><path d="M 1228.89 614.44 A 87.78 87.78 0 0 0 1316.67 702.22 L 1316.67 614.44" fill="#73bb8d"/><rect x="87.78" y="702.22" width="87.78" height="87.78" fill="#329a57"/><polygon points="87.78,702.22 175.56,790 87.78,790" fill="#def4e7"/><rect x="438.89" y="702.22" width="87.78" height="87.78" fill="#a3d4b5"/><path d="M 438.89 790 A 87.78 87.78 0 0 0 526.67 702.22 L 438.89 702.22" fill="#29954f"/></g></svg>