<?xml version="1.0" standalone="no"?><svg xmlns:xlink="http://www.w3.org/1999/xlink" xmlns="http://www.w3.org/2000/svg" viewBox="0 0 1920 1080.0034177323346" preserveAspectRatio="xMaxYMax slice"><g transform="scale(1.3670929338383981)"><rect x="0" y="0" width="1404.4444444444443" height="790" fill="#eefbf4"/><rect x="526.67" y="0" width="87.78" height="87.78" fill="#bcebcd"/><rect x="526.67" y="0" width="87.78" height="87.78" fill="#54bc76"/><rect x="702.22" y="0" width="87.78" height="87.78" fill="#c7ebd4"/><path d="M 702.22 0 A 87.78 87.78 0 0 1  790 87.78 L 702.22 0 A 87.78 87.78 0 0 0 790 87.78" fill="#50bb72"/><rect x="1316.67" y="0" width="87.78" height="87.78" fill="#36c263"/><rect x="1316.67" y="0" width="87.78" height="87.78" fill="#ace0be"/><rect x="263.33" y="87.78" width="87.78" height="87.78" fill="#4ec975"/><rect x="263.33" y="87.78" width="87.78" height="87.78" fill="#29ab52"/><rect x="351.11" y="87.78" width="87.78" height="87.78" fill="#c5eed4"/><polygon points="351.11,87.78 438.89,87.78 351.11,175.56" fill="#3db363"/><rect x="438.89" y="87.78" width="87.78" height="87.78" fill="#2fbf5d"/><polygon points="438.89,87.78 526.67,87.78 526.67,175.56" fill="#76ca92"/><rect x="965.56" y="87.78" width="87.78" height="87.78" fill="#48c771"/><rect x="965.56" y="87.78" width="87.78" height="87.78" fill="#80ce9a"/><rect x="1141.11" y="87.78" width="87.78" height="87.78" fill="#eafaf1"/><rect x="1141.11" y="87.78" width="87.78" height="87.78" fill="#94dfad"/><rect x="1316.67" y="87.78" width="87.78" height="87.78" fill="#79cb94"/><polygon points="1404.45,87.78 1404.45,175.56 1316.67,175.56" fill="#b7e5c7"/><rect x="175.56" y="175.56" width="87.78" height="87.78" fill="#65c383"/><path d="M 175.56 175.56 A 87.78 87.78 0 0 0 263.34000000000003 263.34000000000003 L 263.34000000000003 175.56" fill="#c8ecd5"/><rect x="526.67" y="175.56" width="87.78" height="87.78" fill="#66d188"/><polygon points="526.67,175.56 614.4499999999999,175.56 526.67,263.34000000000003" fill="#b2e8c5"/><rect x="614.44" y="175.56" width="87.78" height="87.78" fill="#3fc469"/><path d="M 614.44 263.34000000000003 A 87.78 87.78 0 0 1  702.22 175.56 L 614.44 263.34000000000003 A 87.78 87.78 0 0 0 702.22 175.56" fill="#95dfae"/><rect x="1316.67" y="175.56" width="87.78" height="87.78" fill="#e8f9f0"/><polygon points="1316.67,175.56 1404.45,175.56 1316.67,263.34000000000003" fill="#65d088"/><rect x="0" y="263.33" width="87.78" height="87.78" fill="#b2e3c3"/><polygon points="0,263.33 87.78,351.11 0,351.11" fill="#48c771"/><rect x="351.11" y="263.33" width="87.78" height="87.78" fill="#c2edd1"/><polygon points="438.89,263.33 438.89,351.11 351.11,351.11" fill="#e6f9ee"/><rect x="790" y="263.33" width="87.78" height="87.78" fill="#cff1db"/><rect x="790" y="263.33" width="87.78" height="87.78" fill="#d7f4e2"/><rect x="1053.33" y="263.33" width="87.78" height="87.78" fill="#22a84d"/><rect x="1053.33" y="263.33" width="87.78" height="87.78" fill="#5dc07d"/><rect x="1141.11" y="263.33" width="87.78" height="87.78" fill="#82d99f"/><polygon points="1141.11,263.33 1228.8899999999999,263.33 1141.11,351.11" fill="#41b566"/><rect x="1228.89" y="263.33" width="87.78" height="87.78" fill="#d7f2e1"/><path d="M 1228.89 263.33 A 87.78 87.78 0 0 0 1316.67 351.11 L 1316.67 263.33" fill="#9fe2b5"/><rect x="87.78" y="351.11" width="87.78" height="87.78" fill="#d7f2e1"/><rect x="87.78" y="351.11" width="87.78" height="87.78" fill="#a7e5bc"/><rect x="175.56" y="351.11" width="87.78" height="87.78" fill="#dcf4e5"/><polygon points="175.56,351.11 263.34000000000003,351.11 175.56,438.89" fill="#cdf1da"/><rect x="614.44" y="351.11" width="87.78" height="87.78" fill="#2dac55"/><rect x="614.44" y="351.11" width="87.78" height="87.78" fill="#beecce"/><rect x="1141.11" y="351.11" width="87.78" height="87.78" fill="#c4eed3"/><path d="M 1141.11 351.11 A 87.78 87.78 0 0 0 1228.8899999999999 438.89 L 1228.8899999999999 351.11" fill="#54cb7a"/><rect x="87.78" y="438.89" width="87.78" height="87.78" fill="#cdf1da"/><polygon points="87.78,438.89 175.56,438.89 87.78,526.67" fill="#29ab52"/><rect x="526.67" y="438.89" width="87.78" height="87.78" fill="#71c88e"/><rect x="526.67" y="438.89" width="87.78" height="87.78" fill="#6fc78c"/><rect x="790" y="438.89" width="87.78" height="87.78" fill="#dbf3e4"/><rect x="790" y="438.89" width="87.78" height="87.78" fill="#51ca78"/><rect x="1316.67" y="438.89" width="87.78" height="87.78" fill="#ebfaf2"/><path d="M 1316.67 526.67 A 87.78 87.78 0 0 1  1404.45 438.89 L 1316.67 526.67 A 87.78 87.78 0 0 0 1404.45 438.89" fill="#ebfaf1"/><rect x="263.33" y="526.67" width="87.78" height="87.78" fill="#ebfaf1"/><polygon points="351.11,526.67 351.11,614.4499999999999 263.33,614.4499999999999" fill="#b5e9c7"/><rect x="526.67" y="526.67" width="87.78" height="87.78" fill="#6fc78c"/><path d="M 526.67 526.67 A 87.78 87.78 0 0 1 614.4499999999999 614.4499999999999 L 526.67 614.4499999999999" fill="#91deab"/><rect x="614.44" y="526.67" width="87.78" height="87.78" fill="#b2e3c3"/><rect x="614.44" y="526.67" width="87.78" height="87.78" fill="#d3f0de"/><rect x="877.78" y="526.67" width="87.78" height="87.78" fill="#aae6bf"/><rect x="877.78" y="526.67" width="87.78" height="87.78" fill="#b8e5c8"/><rect x="1228.89" y="526.67" width="87.78" height="87.78" fill="#31c05f"/><rect x="1228.89" y="526.67" width="87.78" height="87.78" fill="#91deaa"/><rect x="702.22" y="614.44" width="87.78" height="87.78" fill="#8bd3a3"/><path d="M 702.22 614.44 A 87.78 87.78 0 0 1  790 702.22 L 702.22 614.44 A 87.78 87.78 0 0 0 790 702.22" fill="#c7efd5"/><rect x="1053.33" y="614.44" width="87.78" height="87.78" fill="#98e0b0"/><path d="M 1053.33 614.44 A 87.78 87.78 0 0 0 1141.11 702.22 L 1141.11 614.44" fill="#b7e5c7"/><rect x="1141.11" y="614.44" width="87.78" height="87.78" fill="#cef1db"/><polygon points="1228.8899999999999,614.44 1228.8899999999999,702.22 1141.11,702.22" fill="#c0edd0"/><rect x="1316.67" y="614.44" width="87.78" height="87.78" fill="#b1e8c4"/><polygon points="1316.67,614.44 1404.45,702.22 1316.67,702.22" fill="#81d99d"/><rect x="87.78" y="702.22" width="87.78" height="87.78" fill="#9ce1b3"/><path d="M 87.78 702.22 A 87.78 87.78 0 0 1 175.56 790 L 87.78 790" fill="#64d087"/><rect x="351.11" y="702.22" width="87.78" height="87.78" fill="#4fc976"/><rect x="351.11" y="702.22" width="87.78" height="87.78" fill="#4cc874"/><rect x="614.44" y="702.22" width="87.78" height="87.78" fill="#69d18a"/><rect x="614.44" y="702.22" width="87.78" height="87.78" fill="#7cd89a"/><rect x="702.22" y="702.22" width="87.78" height="87.78" fill="#afe1c0"/><rect x="702.22" y="702.22" width="87.78" height="87.78" fill="#edfbf3"/><rect x="965.56" y="702.22" width="87.78" height="87.78" fill="#cdeed9"/><rect x="965.56" y="702.22" width="87.78" height="87.78" fill="#38b15f"/><rect x="1141.11" y="702.22" width="87.78" height="87.78" fill="#1ca548"/><rect x="1141.11" y="702.22" width="87.78" height="87.78" fill="#65c383"/></g></svg>