<?xml version="1.0" encoding="UTF-8" standalone="no"?>
<!DOCTYPE svg PUBLIC "-//W3C//DTD SVG 1.1//EN" "http://www.w3.org/Graphics/SVG/1.1/DTD/svg11.dtd">
<svg width="100%" height="100%" viewBox="0 0 1920 1081" version="1.1" xmlns="http://www.w3.org/2000/svg" xmlns:xlink="http://www.w3.org/1999/xlink" xml:space="preserve" xmlns:serif="http://www.serif.com/" style="fill-rule:evenodd;clip-rule:evenodd;stroke-linejoin:round;stroke-miterlimit:2;">
    <g transform="matrix(1.36709,0,0,1.36709,0,0)">
        <rect x="0" y="0" width="1404.44" height="790" style="fill:rgb(238,251,244);"/>
        <rect x="175.56" y="0" width="87.78" height="87.78" style="fill:rgb(182,228,198);"/>
        <rect x="175.56" y="0" width="87.78" height="87.78" style="fill:rgb(156,218,177);"/>
        <rect x="1141.11" y="0" width="87.78" height="87.78" style="fill:rgb(117,188,143);"/>
        <path d="M1141.11,0L1228.89,0L1141.11,87.78L1141.11,0Z" style="fill:rgb(203,233,215);fill-rule:nonzero;"/>
        <rect x="1141.11" y="87.78" width="87.78" height="87.78" style="fill:rgb(140,201,163);"/>
        <path d="M1141.11,87.78C1141.11,135.935 1180.74,175.56 1228.89,175.56L1228.89,87.78" style="fill:rgb(51,175,90);fill-rule:nonzero;"/>
        <rect x="175.56" y="175.56" width="87.78" height="87.78" style="fill:rgb(37,169,79);"/>
        <rect x="175.56" y="175.56" width="87.78" height="87.78" style="fill:rgb(107,183,135);"/>
        <rect x="351.11" y="175.56" width="87.78" height="87.78" style="fill:rgb(196,234,209);"/>
        <path d="M351.11,175.56L438.89,263.34L351.11,263.34L351.11,175.56Z" style="fill:rgb(63,180,101);fill-rule:nonzero;"/>
        <g transform="matrix(1,0,0,1,87.7822,-175.56)">
            <rect x="614.44" y="175.56" width="87.78" height="87.78" style="fill:rgb(119,190,145);"/>
        </g>
        <rect x="1141.11" y="175.56" width="87.78" height="87.78" style="fill:rgb(194,228,207);"/>
        <rect x="1141.11" y="175.56" width="87.78" height="87.78" style="fill:rgb(57,177,96);"/>
        <rect x="1316.67" y="175.56" width="87.78" height="87.78" style="fill:rgb(29,166,73);"/>
        <rect x="1316.67" y="175.56" width="87.78" height="87.78" style="fill:rgb(142,212,165);"/>
        <rect x="87.78" y="263.33" width="87.78" height="87.78" style="fill:rgb(120,203,147);"/>
        <path d="M87.78,263.33C135.935,263.33 175.56,302.955 175.56,351.11L87.78,263.33C87.78,311.485 127.405,351.11 175.56,351.11" style="fill:rgb(188,225,202);fill-rule:nonzero;"/>
        <rect x="175.56" y="438.89" width="87.78" height="87.78" style="fill:rgb(119,189,144);"/>
        <rect x="175.56" y="438.89" width="87.78" height="87.78" style="fill:rgb(180,227,197);"/>
        <rect x="526.67" y="438.89" width="87.78" height="87.78" style="fill:rgb(71,183,107);"/>
        <rect x="526.67" y="438.89" width="87.78" height="87.78" style="fill:rgb(26,142,67);"/>
        <rect x="438.89" y="526.67" width="87.78" height="87.78" style="fill:rgb(56,157,92);"/>
        <path d="M438.89,526.67L526.67,526.67L438.89,614.45L438.89,526.67Z" style="fill:rgb(77,185,112);fill-rule:nonzero;"/>
        <rect x="614.44" y="526.67" width="87.78" height="87.78" style="fill:rgb(158,210,177);"/>
        <rect x="614.44" y="526.67" width="87.78" height="87.78" style="fill:rgb(57,177,96);"/>
        <rect x="790" y="526.67" width="87.78" height="87.78" style="fill:rgb(228,246,236);"/>
        <path d="M790,614.45C790,566.295 829.625,526.67 877.78,526.67L877.78,614.45" style="fill:rgb(186,230,201);fill-rule:nonzero;"/>
        <rect x="877.78" y="526.67" width="87.78" height="87.78" style="fill:rgb(155,208,175);"/>
        <path d="M877.78,614.45C877.78,566.295 917.405,526.67 965.56,526.67L877.78,614.45C925.935,614.45 965.56,574.825 965.56,526.67" style="fill:rgb(197,230,210);fill-rule:nonzero;"/>
        <rect x="1141.11" y="526.67" width="87.78" height="87.78" style="fill:rgb(236,250,242);"/>
        <path d="M1141.11,526.67C1189.27,526.67 1228.89,566.295 1228.89,614.45L1141.11,614.45" style="fill:rgb(161,220,181);fill-rule:nonzero;"/>
        <rect x="263.33" y="614.44" width="87.78" height="87.78" style="fill:rgb(132,197,156);"/>
        <path d="M263.33,614.44L351.11,702.22L263.33,702.22L263.33,614.44Z" style="fill:rgb(194,228,207);fill-rule:nonzero;"/>
        <rect x="614.44" y="614.44" width="87.78" height="87.78" style="fill:rgb(36,169,78);"/>
        <rect x="614.44" y="614.44" width="87.78" height="87.78" style="fill:rgb(198,230,211);"/>
        <rect x="790" y="614.44" width="87.78" height="87.78" style="fill:rgb(186,224,201);"/>
        <path d="M790,614.44L877.78,702.22L790,702.22L790,614.44Z" style="fill:rgb(133,208,158);fill-rule:nonzero;"/>
        <rect x="1228.89" y="614.44" width="87.78" height="87.78" style="fill:rgb(152,216,174);"/>
        <path d="M1228.89,614.44C1228.89,662.595 1268.52,702.22 1316.67,702.22L1316.67,614.44" style="fill:rgb(115,187,141);fill-rule:nonzero;"/>
        <rect x="87.78" y="702.22" width="87.78" height="87.78" style="fill:rgb(50,154,87);"/>
        <path d="M87.78,702.22L175.56,790L87.78,790L87.78,702.22Z" style="fill:rgb(222,244,231);fill-rule:nonzero;"/>
        <rect x="438.89" y="702.22" width="87.78" height="87.78" style="fill:rgb(163,212,181);"/>
        <path d="M438.89,790C487.045,790 526.67,750.375 526.67,702.22L438.89,702.22" style="fill:rgb(41,149,79);fill-rule:nonzero;"/>
    </g>
</svg>
