<?xml version="1.0" standalone="no"?><svg xmlns:xlink="http://www.w3.org/1999/xlink" xmlns="http://www.w3.org/2000/svg" viewBox="0 0 1000 562.5004738043075" preserveAspectRatio="xMaxYMax slice"><g transform="scale(0.7580868919195519)"><rect x="0" y="0" width="1319.111111111111" height="742" fill="#eefbf4"/><rect x="82.44" y="0" width="82.44" height="82.44" fill="#cbe9d7"/><rect x="82.44" y="0" width="82.44" height="82.44" fill="#cdedd9"/><rect x="329.78" y="0" width="82.44" height="82.44" fill="#70c88d"/><path d="M 329.78 82.44 A 82.44 82.44 0 0 1  412.21999999999997 0 L 412.21999999999997 82.44" fill="#e3f5ea"/><rect x="494.67" y="82.44" width="82.44" height="82.44" fill="#a7d6b9"/><rect x="494.67" y="82.44" width="82.44" height="82.44" fill="#bbe6ca"/><rect x="82.44" y="247.33" width="82.44" height="82.44" fill="#e5f7ed"/><polygon points="82.44,247.33 164.88,329.77 82.44,329.77" fill="#2e9853"/><rect x="329.78" y="247.33" width="82.44" height="82.44" fill="#9fd2b2"/><rect x="329.78" y="247.33" width="82.44" height="82.44" fill="#ccedd8"/><rect x="412.22" y="247.33" width="82.44" height="82.44" fill="#abe0bd"/><path d="M 412.22 329.77 A 82.44 82.44 0 0 0 494.66 247.33 L 412.22 247.33" fill="#44a467"/><rect x="659.56" y="247.33" width="82.44" height="82.44" fill="#359c5a"/><polygon points="659.56,247.33 742,247.33 659.56,329.77" fill="#70c88c"/><rect x="989.33" y="247.33" width="82.44" height="82.44" fill="#99d8af"/><path d="M 989.33 247.33 A 82.44 82.44 0 0 0 1071.77 329.77 L 1071.77 247.33" fill="#4ab86e"/><rect x="412.22" y="329.78" width="82.44" height="82.44" fill="#a0dbb4"/><path d="M 412.22 412.21999999999997 A 82.44 82.44 0 0 1  494.66 329.78 L 494.66 412.21999999999997" fill="#8fd4a6"/><rect x="659.56" y="412.22" width="82.44" height="82.44" fill="#158b3f"/><rect x="659.56" y="412.22" width="82.44" height="82.44" fill="#30ae58"/><rect x="989.33" y="412.22" width="82.44" height="82.44" fill="#48b76c"/><rect x="989.33" y="412.22" width="82.44" height="82.44" fill="#a1dcb5"/><rect x="1236.67" y="412.22" width="82.44" height="82.44" fill="#379d5b"/><path d="M 1236.67 494.66 A 82.44 82.44 0 0 1  1319.1100000000001 412.22 L 1236.67 494.66 A 82.44 82.44 0 0 0 1319.1100000000001 412.22" fill="#3ab260"/><rect x="1071.78" y="494.67" width="82.44" height="82.44" fill="#ebfaf1"/><path d="M 1071.78 577.11 A 82.44 82.44 0 0 1  1154.22 494.67 L 1071.78 577.11 A 82.44 82.44 0 0 0 1154.22 494.67" fill="#7acc95"/><rect x="1236.67" y="494.67" width="82.44" height="82.44" fill="#d1ecdc"/><polygon points="1319.1100000000001,494.67 1319.1100000000001,577.11 1236.67,577.11" fill="#23a84d"/><rect x="82.44" y="577.11" width="82.44" height="82.44" fill="#27944e"/><rect x="82.44" y="577.11" width="82.44" height="82.44" fill="#bce7cb"/><rect x="577.11" y="577.11" width="82.44" height="82.44" fill="#e6f8ed"/><rect x="577.11" y="577.11" width="82.44" height="82.44" fill="#a6d6b8"/><rect x="824.44" y="577.11" width="82.44" height="82.44" fill="#bbe6ca"/><path d="M 824.44 659.55 A 82.44 82.44 0 0 1  906.8800000000001 577.11 L 824.44 659.55 A 82.44 82.44 0 0 0 906.8800000000001 577.11" fill="#bde7cc"/><rect x="989.33" y="577.11" width="82.44" height="82.44" fill="#b0dbc0"/><polygon points="989.33,577.11 1071.77,659.55 989.33,659.55" fill="#8fcaa5"/><rect x="164.89" y="659.56" width="82.44" height="82.44" fill="#2dac56"/><path d="M 164.89 742 A 82.44 82.44 0 0 0 247.32999999999998 659.56 L 164.89 659.56" fill="#10883b"/><rect x="329.78" y="659.56" width="82.44" height="82.44" fill="#56bd78"/><polygon points="329.78,659.56 412.21999999999997,659.56 412.21999999999997,742" fill="#4da86e"/><rect x="659.56" y="659.56" width="82.44" height="82.44" fill="#3ab260"/><path d="M 659.56 742 A 82.44 82.44 0 0 1  742 659.56 L 742 742" fill="#dff3e7"/></g></svg>