<?xml version="1.0" encoding="UTF-8" standalone="no"?>
<!DOCTYPE svg PUBLIC "-//W3C//DTD SVG 1.1//EN" "http://www.w3.org/Graphics/SVG/1.1/DTD/svg11.dtd">
<svg width="100%" height="100%" viewBox="0 0 1920 1081" version="1.1" xmlns="http://www.w3.org/2000/svg" xmlns:xlink="http://www.w3.org/1999/xlink" xml:space="preserve" xmlns:serif="http://www.serif.com/" style="fill-rule:evenodd;clip-rule:evenodd;stroke-linejoin:round;stroke-miterlimit:2;">
    <g transform="matrix(1.45553,0,0,1.45553,0,0)">
        <rect x="0" y="0" width="1319.11" height="742" style="fill:rgb(238,251,244);"/>
        <rect x="906.89" y="0" width="82.44" height="82.44" style="fill:rgb(111,186,138);"/>
        <path d="M906.89,0C952.115,0 989.33,37.215 989.33,82.44L906.89,82.44" style="fill:rgb(210,239,221);fill-rule:nonzero;"/>
        <g transform="matrix(1,0,0,1,0,-82.44)">
            <rect x="82.44" y="82.44" width="82.44" height="82.44" style="fill:rgb(177,220,194);"/>
        </g>
        <rect x="329.78" y="82.44" width="82.44" height="82.44" style="fill:rgb(88,190,121);"/>
        <path d="M329.78,164.88C375.005,164.88 412.22,127.665 412.22,82.44L329.78,82.44" style="fill:rgb(76,185,111);fill-rule:nonzero;"/>
        <rect x="494.67" y="82.44" width="82.44" height="82.44" style="fill:rgb(97,178,127);"/>
        <path d="M494.67,82.44C539.895,82.44 577.11,119.655 577.11,164.88L494.67,164.88" style="fill:rgb(142,212,165);fill-rule:nonzero;"/>
        <rect x="824.44" y="164.89" width="82.44" height="82.44" style="fill:rgb(145,213,167);"/>
        <rect x="824.44" y="164.89" width="82.44" height="82.44" style="fill:rgb(196,229,209);"/>
        <rect x="1071.78" y="164.89" width="82.44" height="82.44" style="fill:rgb(65,180,102);"/>
        <path d="M1071.78,164.89L1154.22,164.89L1071.78,247.33L1071.78,164.89Z" style="fill:rgb(33,145,73);fill-rule:nonzero;"/>
        <rect x="412.22" y="247.33" width="82.44" height="82.44" style="fill:rgb(156,209,176);"/>
        <path d="M494.66,247.33L494.66,329.77L412.22,329.77L494.66,247.33Z" style="fill:rgb(46,173,87);fill-rule:nonzero;"/>
        <rect x="824.44" y="329.78" width="82.44" height="82.44" style="fill:rgb(133,208,158);"/>
        <path d="M824.44,329.78L906.88,329.78L906.88,412.22L824.44,329.78Z" style="fill:rgb(102,181,130);fill-rule:nonzero;"/>
        <rect x="0" y="412.22" width="82.44" height="82.44" style="fill:rgb(188,225,203);"/>
        <rect x="0" y="412.22" width="82.44" height="82.44" style="fill:rgb(123,204,150);"/>
        <rect x="329.78" y="412.22" width="82.44" height="82.44" style="fill:rgb(126,193,150);"/>
        <rect x="329.78" y="412.22" width="82.44" height="82.44" style="fill:rgb(83,188,117);"/>
        <rect x="82.44" y="494.67" width="82.44" height="82.44" style="fill:rgb(172,224,190);"/>
        <rect x="82.44" y="494.67" width="82.44" height="82.44" style="fill:rgb(125,193,150);"/>
        <rect x="1154.22" y="494.67" width="82.44" height="82.44" style="fill:rgb(163,220,182);"/>
        <rect x="1154.22" y="494.67" width="82.44" height="82.44" style="fill:rgb(110,185,137);"/>
        <rect x="0" y="577.11" width="82.44" height="82.44" style="fill:rgb(155,208,175);"/>
        <path d="M0,659.55C45.225,659.55 82.44,622.335 82.44,577.11L0,577.11" style="fill:rgb(233,249,240);fill-rule:nonzero;"/>
        <rect x="659.56" y="577.11" width="82.44" height="82.44" style="fill:rgb(154,208,174);"/>
        <path d="M659.56,659.55C704.785,659.55 742,622.335 742,577.11L659.56,577.11" style="fill:rgb(100,180,129);fill-rule:nonzero;"/>
        <rect x="989.33" y="577.11" width="82.44" height="82.44" style="fill:rgb(100,180,129);"/>
        <path d="M989.33,577.11C1034.56,577.11 1071.77,614.325 1071.77,659.55L989.33,577.11C989.33,622.335 1026.55,659.55 1071.77,659.55" style="fill:rgb(19,138,62);fill-rule:nonzero;"/>
        <rect x="0" y="659.56" width="82.44" height="82.44" style="fill:rgb(157,209,177);"/>
        <path d="M82.44,659.56L82.44,742L0,742L82.44,659.56Z" style="fill:rgb(87,173,118);fill-rule:nonzero;"/>
        <rect x="1071.78" y="659.56" width="82.44" height="82.44" style="fill:rgb(134,197,157);"/>
        <path d="M1071.78,659.56C1117.01,659.56 1154.22,696.775 1154.22,742L1071.78,659.56C1071.78,704.785 1109,742 1154.22,742" style="fill:rgb(141,201,163);fill-rule:nonzero;"/>
    </g>
</svg>
