<?xml version="1.0" encoding="UTF-8" standalone="no"?>
<!DOCTYPE svg PUBLIC "-//W3C//DTD SVG 1.1//EN" "http://www.w3.org/Graphics/SVG/1.1/DTD/svg11.dtd">
<svg width="100%" height="100%" viewBox="0 0 1920 1081" version="1.1" xmlns="http://www.w3.org/2000/svg" xmlns:xlink="http://www.w3.org/1999/xlink" xml:space="preserve" xmlns:serif="http://www.serif.com/" style="fill-rule:evenodd;clip-rule:evenodd;stroke-linejoin:round;stroke-miterlimit:2;">
    <g transform="matrix(1.45553,0,0,1.45553,0,0)">
        <rect x="0" y="0" width="1319.11" height="742" style="fill:rgb(238,251,244);"/>
        <rect x="164.89" y="0" width="82.44" height="82.44" style="fill:rgb(116,188,142);"/>
        <rect x="164.89" y="0" width="82.44" height="82.44" style="fill:rgb(50,154,87);"/>
        <rect x="412.22" y="0" width="82.44" height="82.44" style="fill:rgb(147,204,168);"/>
        <rect x="412.22" y="0" width="82.44" height="82.44" style="fill:rgb(136,198,159);"/>
        <rect x="659.56" y="0" width="82.44" height="82.44" style="fill:rgb(160,211,179);"/>
        <path d="M659.56,0L742,82.44L659.56,82.44L659.56,0Z" style="fill:rgb(167,214,185);fill-rule:nonzero;"/>
        <rect x="1154.22" y="0" width="82.44" height="82.44" style="fill:rgb(59,178,97);"/>
        <rect x="82.44" y="82.44" width="82.44" height="82.44" style="fill:rgb(122,191,147);"/>
        <path d="M82.44,82.44L164.88,82.44L82.44,164.88L82.44,82.44Z" style="fill:rgb(174,225,192);fill-rule:nonzero;"/>
        <rect x="164.89" y="82.44" width="82.44" height="82.44" style="fill:rgb(181,221,196);"/>
        <path d="M164.89,82.44L247.33,82.44L247.33,164.88L164.89,82.44Z" style="fill:rgb(43,171,84);fill-rule:nonzero;"/>
        <rect x="247.33" y="82.44" width="82.44" height="82.44" style="fill:rgb(156,209,176);"/>
        <path d="M329.77,82.44L329.77,164.88L247.33,164.88L329.77,82.44Z" style="fill:rgb(38,169,80);fill-rule:nonzero;"/>
        <rect x="494.67" y="82.44" width="82.44" height="82.44" style="fill:rgb(206,234,217);"/>
        <path d="M494.67,82.44C539.895,82.44 577.11,119.655 577.11,164.88L494.67,164.88" style="fill:rgb(163,220,183);fill-rule:nonzero;"/>
        <rect x="989.33" y="82.44" width="82.44" height="82.44" style="fill:rgb(174,218,191);"/>
        <path d="M989.33,82.44L1071.77,82.44L1071.77,164.88L989.33,82.44Z" style="fill:rgb(212,238,222);fill-rule:nonzero;"/>
        <rect x="1154.22" y="82.44" width="82.44" height="82.44" style="fill:rgb(190,226,204);"/>
        <path d="M1236.66,82.44L1236.66,164.88L1154.22,164.88L1236.66,82.44Z" style="fill:rgb(125,205,151);fill-rule:nonzero;"/>
        <rect x="82.44" y="164.89" width="82.44" height="82.44" style="fill:rgb(190,226,204);"/>
        <path d="M82.44,164.89L164.88,164.89L82.44,247.33L82.44,164.89Z" style="fill:rgb(52,175,91);fill-rule:nonzero;"/>
        <rect x="494.67" y="164.89" width="82.44" height="82.44" style="fill:rgb(234,249,241);"/>
        <g transform="matrix(0.687036,0,0,0.687036,0,0)">
            <path d="M839.999,240.002L720.005,359.995C720.005,294.169 774.173,240.002 839.999,240.002ZM839.999,240.002C839.999,305.828 785.832,359.995 720.005,359.995L839.999,240.002Z" style="fill:rgb(64,161,99);fill-rule:nonzero;"/>
        </g>
        <rect x="742" y="164.89" width="82.44" height="82.44" style="fill:rgb(55,157,91);"/>
        <path d="M742,247.33C787.225,247.33 824.44,210.115 824.44,164.89L742,164.89" style="fill:rgb(37,147,77);fill-rule:nonzero;"/>
        <rect x="906.89" y="164.89" width="82.44" height="82.44" style="fill:rgb(198,231,211);"/>
        <g transform="matrix(0.687036,0,0,0.687036,0,0)">
            <path d="M1440,359.995C1374.17,359.995 1320,305.828 1320,240.002L1320.77,240.004C1386.25,240.424 1440,294.426 1440,359.995Z" style="fill:rgb(49,154,86);fill-rule:nonzero;"/>
        </g>
        <rect x="989.33" y="164.89" width="82.44" height="82.44" style="fill:rgb(54,176,93);"/>
        <rect x="989.33" y="164.89" width="82.44" height="82.44" style="fill:rgb(157,218,177);"/>
        <rect x="1154.22" y="164.89" width="82.44" height="82.44" style="fill:rgb(101,195,131);"/>
        <rect x="1154.22" y="164.89" width="82.44" height="82.44" style="fill:rgb(180,221,195);"/>
        <rect x="1236.67" y="164.89" width="82.44" height="82.44" style="fill:rgb(236,250,242);"/>
        <g transform="matrix(0.687036,0,0,0.687036,0,0)">
            <path d="M1800.01,359.225C1800.43,293.747 1854.43,240.002 1920,240.002L1920,240.773C1919.58,306.25 1865.58,359.995 1800.01,359.995L1800.01,359.225Z" style="fill:rgb(201,232,213);fill-rule:nonzero;"/>
        </g>
        <rect x="0" y="247.33" width="82.44" height="82.44" style="fill:rgb(137,210,161);"/>
        <path d="M0,247.33C45.225,247.33 82.44,284.545 82.44,329.77L0,329.77" style="fill:rgb(25,141,67);fill-rule:nonzero;"/>
        <rect x="247.33" y="247.33" width="82.44" height="82.44" style="fill:rgb(79,169,112);"/>
        <g transform="matrix(0.687036,0,0,0.687036,0,0)">
            <path d="M479.989,359.995L359.995,479.989C359.995,414.163 414.163,359.995 479.989,359.995ZM479.989,359.995C479.989,425.822 425.822,479.989 359.995,479.989L479.989,359.995Z" style="fill:rgb(221,242,230);fill-rule:nonzero;"/>
        </g>
        <rect x="824.44" y="247.33" width="82.44" height="82.44" style="fill:rgb(67,163,101);"/>
        <rect x="824.44" y="247.33" width="82.44" height="82.44" style="fill:rgb(88,174,119);"/>
        <rect x="1236.67" y="247.33" width="82.44" height="82.44" style="fill:rgb(146,213,169);"/>
        <path d="M1236.67,247.33L1319.11,247.33L1319.11,329.77L1236.67,247.33Z" style="fill:rgb(54,176,93);fill-rule:nonzero;"/>
        <path d="M659.56,329.78L742,412.22L659.56,412.22L659.56,329.78Z" style="fill:rgb(76,185,111);fill-rule:nonzero;"/>
        <rect x="824.44" y="329.78" width="82.44" height="82.44" style="fill:rgb(217,240,226);"/>
        <g transform="matrix(0.687036,0,0,0.687036,0,0)">
            <path d="M1200.77,480.006C1266.24,480.426 1319.99,534.427 1319.99,599.997L1319.22,599.995C1253.74,599.575 1200,545.573 1200,480.004L1200.77,480.006Z" style="fill:rgb(18,137,60);fill-rule:nonzero;"/>
        </g>
        <rect x="906.89" y="329.78" width="82.44" height="82.44" style="fill:rgb(167,215,185);"/>
        <path d="M906.89,329.78L989.33,329.78L906.89,412.22L906.89,329.78Z" style="fill:rgb(134,197,157);fill-rule:nonzero;"/>
        <rect x="1071.78" y="329.78" width="82.44" height="82.44" style="fill:rgb(19,138,62);"/>
        <path d="M1071.78,329.78C1071.78,375.005 1109,412.22 1154.22,412.22L1154.22,329.78" style="fill:rgb(162,220,182);fill-rule:nonzero;"/>
        <rect x="1236.67" y="329.78" width="82.44" height="82.44" style="fill:rgb(139,210,162);"/>
        <rect x="1236.67" y="329.78" width="82.44" height="82.44" style="fill:rgb(213,238,223);"/>
        <rect x="82.44" y="412.22" width="82.44" height="82.44" style="fill:rgb(149,215,171);"/>
        <g transform="matrix(0.687036,0,0,0.687036,0,0)">
            <path d="M120.765,600C186.242,600.42 239.987,654.421 239.987,719.991C174.161,719.991 119.994,665.824 119.994,599.997L120.765,600ZM239.987,719.991L121.064,601.067L239.987,719.991Z" style="fill:rgb(46,152,84);fill-rule:nonzero;"/>
        </g>
        <rect x="577.11" y="412.22" width="82.44" height="82.44" style="fill:rgb(120,190,145);"/>
        <g transform="matrix(0.687036,0,0,0.687036,0,0)">
            <path d="M840.002,719.22C840.422,653.743 894.423,599.997 959.993,599.997C959.993,665.824 905.826,719.991 839.999,719.991L840.002,719.22Z" style="fill:rgb(95,177,125);fill-rule:nonzero;"/>
        </g>
        <rect x="659.56" y="412.22" width="82.44" height="82.44" style="fill:rgb(60,159,95);"/>
        <path d="M659.56,412.22C704.785,412.22 742,449.435 742,494.66L659.56,494.66" style="fill:rgb(174,218,191);fill-rule:nonzero;"/>
        <rect x="824.44" y="412.22" width="82.44" height="82.44" style="fill:rgb(169,223,187);"/>
        <rect x="824.44" y="412.22" width="82.44" height="82.44" style="fill:rgb(87,173,118);"/>
        <rect x="1236.67" y="412.22" width="82.44" height="82.44" style="fill:rgb(179,221,195);"/>
        <rect x="1236.67" y="412.22" width="82.44" height="82.44" style="fill:rgb(35,168,78);"/>
        <rect x="329.78" y="494.67" width="82.44" height="82.44" style="fill:rgb(175,225,193);"/>
        <g transform="matrix(0.687036,0,0,0.687036,0,0)">
            <path d="M480.006,839.228C480.426,773.751 534.427,720.005 599.997,720.005C599.997,785.832 545.83,839.999 480.004,839.999L480.006,839.228Z" style="fill:rgb(144,213,167);fill-rule:nonzero;"/>
        </g>
        <rect x="412.22" y="494.67" width="82.44" height="82.44" style="fill:rgb(101,195,131);"/>
        <path d="M412.22,577.11C412.22,531.885 449.435,494.67 494.66,494.67L494.66,577.11" style="fill:rgb(205,234,217);fill-rule:nonzero;"/>
        <rect x="742" y="494.67" width="82.44" height="82.44" style="fill:rgb(77,168,109);"/>
        <rect x="742" y="494.67" width="82.44" height="82.44" style="fill:rgb(106,197,136);"/>
        <rect x="824.44" y="494.67" width="82.44" height="82.44" style="fill:rgb(25,141,67);"/>
        <rect x="824.44" y="494.67" width="82.44" height="82.44" style="fill:rgb(102,196,132);"/>
        <rect x="906.89" y="494.67" width="82.44" height="82.44" style="fill:rgb(126,206,153);"/>
        <path d="M906.89,494.67L989.33,577.11L906.89,577.11L906.89,494.67Z" style="fill:rgb(136,209,160);fill-rule:nonzero;"/>
        <rect x="1154.22" y="494.67" width="82.44" height="82.44" style="fill:rgb(118,202,146);"/>
        <path d="M1154.22,494.67L1236.66,577.11L1154.22,577.11L1154.22,494.67Z" style="fill:rgb(105,197,135);fill-rule:nonzero;"/>
        <rect x="1236.67" y="494.67" width="82.44" height="82.44" style="fill:rgb(88,174,119);"/>
        <path d="M1236.67,494.67L1319.11,494.67L1319.11,577.11L1236.67,494.67Z" style="fill:rgb(172,224,190);fill-rule:nonzero;"/>
        <rect x="82.44" y="577.11" width="82.44" height="82.44" style="fill:rgb(181,222,197);"/>
        <rect x="82.44" y="577.11" width="82.44" height="82.44" style="fill:rgb(136,210,161);"/>
        <rect x="577.11" y="577.11" width="82.44" height="82.44" style="fill:rgb(52,175,91);"/>
        <rect x="577.11" y="577.11" width="82.44" height="82.44" style="fill:rgb(90,175,121);"/>
        <rect x="824.44" y="577.11" width="82.44" height="82.44" style="fill:rgb(122,204,149);"/>
        <rect x="824.44" y="577.11" width="82.44" height="82.44" style="fill:rgb(215,239,225);"/>
        <rect x="906.89" y="577.11" width="82.44" height="82.44" style="fill:rgb(158,210,177);"/>
        <rect x="906.89" y="577.11" width="82.44" height="82.44" style="fill:rgb(46,152,84);"/>
        <rect x="1154.22" y="577.11" width="82.44" height="82.44" style="fill:rgb(111,186,138);"/>
        <rect x="1154.22" y="577.11" width="82.44" height="82.44" style="fill:rgb(227,245,235);"/>
        <rect x="1236.67" y="577.11" width="82.44" height="82.44" style="fill:rgb(178,227,195);"/>
        <path d="M1319.11,577.11L1319.11,659.55L1236.67,659.55L1319.11,577.11Z" style="fill:rgb(55,176,94);fill-rule:nonzero;"/>
        <rect x="329.78" y="659.56" width="82.44" height="82.44" style="fill:rgb(60,178,98);"/>
        <rect x="577.11" y="659.56" width="82.44" height="82.44" style="fill:rgb(204,237,216);"/>
        <path d="M577.11,659.56L659.55,659.56L577.11,742L577.11,659.56Z" style="fill:rgb(51,175,91);fill-rule:nonzero;"/>
        <rect x="906.89" y="659.56" width="82.44" height="82.44" style="fill:rgb(115,188,141);"/>
        <rect x="906.89" y="659.56" width="82.44" height="82.44" style="fill:rgb(220,244,229);"/>
        <rect x="989.33" y="659.56" width="82.44" height="82.44" style="fill:rgb(113,187,140);"/>
        <path d="M989.33,659.56L1071.77,659.56L989.33,742L989.33,659.56Z" style="fill:rgb(158,210,177);fill-rule:nonzero;"/>
        <rect x="1236.67" y="659.56" width="82.44" height="82.44" style="fill:rgb(105,183,133);"/>
        <rect x="1236.67" y="659.56" width="82.44" height="82.44" style="fill:rgb(147,214,170);"/>
    </g>
</svg>
