<?xml version="1.0" standalone="no"?><svg xmlns:xlink="http://www.w3.org/1999/xlink" xmlns="http://www.w3.org/2000/svg" viewBox="0 0 1920 1080.0009097042705" preserveAspectRatio="xMaxYMax slice"><g transform="scale(1.4555268324855397)"><rect x="0" y="0" width="1319.111111111111" height="742" fill="#eefbf4"/><rect x="412.22" y="0" width="82.44" height="82.44" fill="#5baf79"/><path d="M 412.22 0 A 82.44 82.44 0 0 0 494.66 82.44 L 494.66 0" fill="#bde7cc"/><rect x="824.44" y="82.44" width="82.44" height="82.44" fill="#5fb17d"/><polygon points="824.44,82.44 906.8800000000001,82.44 906.8800000000001,164.88" fill="#aee1c0"/><rect x="247.33" y="164.89" width="82.44" height="82.44" fill="#27944e"/><polygon points="247.33,164.89 329.77,247.32999999999998 247.33,247.32999999999998" fill="#bfe3cd"/><rect x="906.89" y="164.89" width="82.44" height="82.44" fill="#29ab53"/><path d="M 906.89 164.89 A 82.44 82.44 0 0 0 989.3299999999999 247.32999999999998 L 989.3299999999999 164.89" fill="#cdead9"/><rect x="1154.22" y="164.89" width="82.44" height="82.44" fill="#c9ecd6"/><rect x="1154.22" y="164.89" width="82.44" height="82.44" fill="#34af5b"/><rect x="577.11" y="247.33" width="82.44" height="82.44" fill="#188d41"/><rect x="577.11" y="247.33" width="82.44" height="82.44" fill="#8bd3a3"/><rect x="82.44" y="329.78" width="82.44" height="82.44" fill="#9cdab1"/><path d="M 82.44 329.78 A 82.44 82.44 0 0 1 164.88 412.21999999999997 L 82.44 412.21999999999997" fill="#8cd3a4"/><rect x="164.89" y="329.78" width="82.44" height="82.44" fill="#3fa162"/><polygon points="164.89,329.78 247.32999999999998,412.21999999999997 164.89,412.21999999999997" fill="#a8dfbb"/><rect x="247.33" y="329.78" width="82.44" height="82.44" fill="#7abf93"/><polygon points="247.33,329.78 329.77,412.21999999999997 247.33,412.21999999999997" fill="#def4e7"/><rect x="247.33" y="412.22" width="82.44" height="82.44" fill="#c2e9d0"/><polygon points="247.33,412.22 329.77,412.22 247.33,494.66" fill="#57bd78"/><rect x="906.89" y="494.67" width="82.44" height="82.44" fill="#a3dcb7"/><path d="M 906.89 494.67 A 82.44 82.44 0 0 0 989.3299999999999 577.11 L 989.3299999999999 494.67" fill="#c0e8ce"/><rect x="1071.78" y="494.67" width="82.44" height="82.44" fill="#abd8bc"/><path d="M 1071.78 577.11 A 82.44 82.44 0 0 1  1154.22 494.67 L 1071.78 577.11 A 82.44 82.44 0 0 0 1154.22 494.67" fill="#80ce9a"/><rect x="824.44" y="577.11" width="82.44" height="82.44" fill="#e3f5eb"/><polygon points="824.44,577.11 906.8800000000001,577.11 824.44,659.55" fill="#24934c"/><rect x="1236.67" y="577.11" width="82.44" height="82.44" fill="#d7f1e1"/><polygon points="1236.67,577.11 1319.1100000000001,659.55 1236.67,659.55" fill="#87c69e"/><rect x="164.89" y="659.56" width="82.44" height="82.44" fill="#9fdbb4"/><path d="M 164.89 742 A 82.44 82.44 0 0 1  247.32999999999998 659.56 L 164.89 742 A 82.44 82.44 0 0 0 247.32999999999998 659.56" fill="#64b481"/><rect x="1071.78" y="659.56" width="82.44" height="82.44" fill="#6dc78b"/><polygon points="1071.78,659.56 1154.22,742 1071.78,742" fill="#92cba7"/><rect x="1236.67" y="659.56" width="82.44" height="82.44" fill="#7dcd97"/><path d="M 1236.67 659.56 A 82.44 82.44 0 0 1  1319.1100000000001 742 L 1236.67 659.56 A 82.44 82.44 0 0 0 1319.1100000000001 742" fill="#c9e8d5"/></g></svg>